<svg width="22" height="21" viewBox="0 0 22 21" fill="none" xmlns="http://www.w3.org/2000/svg">
<path fill-rule="evenodd" clip-rule="evenodd" d="M13.058 2.65288C11.8608 1.67336 10.1392 1.67336 8.94198 2.65288L2.7673 7.70489C2.29799 8.08887 2.46708 8.84369 3.05535 8.99076C4.05131 9.23974 4.75 10.1346 4.75 11.1612V16C4.75 17.7949 6.20507 19.25 8 19.25H14C15.7949 19.25 17.25 17.7949 17.25 16V11.1612C17.25 10.1346 17.9487 9.23974 18.9446 8.99076C19.5329 8.84369 19.702 8.08887 19.2327 7.70489L13.058 2.65288ZM7.99212 1.49195C9.74186 0.0603417 12.2581 0.0603431 14.0079 1.49195L20.1826 6.54396C21.6067 7.70917 21.0936 9.99968 19.3085 10.446C18.9802 10.528 18.75 10.8229 18.75 11.1612V16C18.75 18.6234 16.6234 20.75 14 20.75H8C5.37665 20.75 3.25 18.6234 3.25 16V11.1612C3.25 10.8229 3.01976 10.528 2.69155 10.446C0.906396 9.99968 0.393292 7.70917 1.81744 6.54395L7.99212 1.49195Z" fill="#5B9EE1"/>
</svg>
