<svg width="45" height="44" viewBox="0 0 45 44" fill="none" xmlns="http://www.w3.org/2000/svg">
<rect x="0.5" width="44" height="44" rx="22" fill="white"/>
<path d="M33.6858 30.5C32.3518 30.5 31.5605 29.8173 31.5 28.834H32.7756C32.7756 29.1618 32.9572 29.5981 33.7463 29.6253C34.2933 29.6253 34.596 29.2975 34.596 29.0512C34.5355 28.6691 34.0491 28.6419 33.5647 28.5584C33.127 28.5067 32.6981 28.3972 32.2892 28.2327C32.0812 28.1163 31.9091 27.9454 31.7913 27.7382C31.6736 27.5311 31.6147 27.2956 31.6211 27.0574C31.6211 26.1827 32.3518 25.5 33.6253 25.5C34.8403 25.5 35.6294 26.1284 35.6879 27.0845H34.4749C34.4749 26.8403 34.4144 26.429 33.6858 26.429C33.1994 26.429 32.8967 26.5104 32.8361 26.8653C32.8361 27.358 33.8674 27.3309 34.6566 27.5209C35.3851 27.713 35.8716 28.1764 35.8716 28.834C35.8716 30.0365 34.9008 30.5 33.6858 30.5Z" fill="#1A2530"/>
<path d="M27.6086 28.2182C27.6086 28.9115 28.1598 29.4816 28.8758 29.4816C29.5368 29.4816 30.1411 28.9115 30.1411 28.2182C30.1297 27.8864 29.9927 27.5713 29.7578 27.3368C29.5229 27.1022 29.2076 26.9657 28.8758 26.9548C28.5408 26.9563 28.2199 27.0898 27.9827 27.3263C27.7455 27.5628 27.6111 27.8833 27.6086 28.2182ZM28.819 30.4988C28.5206 30.4991 28.2251 30.4401 27.9496 30.3253C27.6742 30.2104 27.4243 30.042 27.2144 29.8299C27.0046 29.6177 26.8389 29.3661 26.7271 29.0894C26.6153 28.8127 26.5595 28.5166 26.563 28.2182C26.563 26.9548 27.5537 25.9623 28.819 25.9623C29.3152 25.9623 29.7566 26.0873 30.1411 26.3582V26.0115H31.1885V30.3984H30.1411V30.1256C29.7465 30.3769 29.2867 30.5067 28.819 30.4988ZM22.5456 28.2182C22.5456 28.9115 23.1517 29.4816 23.8127 29.4816C24.5287 29.4816 25.0799 28.9115 25.0799 28.2182C25.0774 27.8833 24.943 27.5628 24.7058 27.3263C24.4686 27.0898 24.1477 26.9563 23.8127 26.9548C23.4808 26.9657 23.1653 27.1021 22.93 27.3366C22.6948 27.5712 22.5574 27.8863 22.5456 28.2182ZM25.0799 24.5H26.1804V30.3984H25.0799V30.1256C24.7088 30.3833 24.2643 30.5142 23.8127 30.4988C22.5456 30.4988 21.5 29.4816 21.5 28.2182C21.5 26.9548 22.5456 25.9623 23.8127 25.9623C24.3071 25.9623 24.7484 26.0873 25.0799 26.3582V24.5Z" fill="#1A2530"/>
<path d="M20.5 30.5L20.5 26.5L20.5 30.5Z" fill="#1A2530"/>
<path d="M20.5 30.5L20.5 26.5" stroke="#1A2530"/>
<path d="M15.6171 28.2188C15.6171 28.9122 16.2059 29.4824 16.9707 29.4824C17.6749 29.4824 18.3244 28.9122 18.3244 28.2188C18.3113 27.8869 18.1644 27.5721 17.9132 27.3376C17.662 27.1031 17.3252 26.9665 16.9707 26.9552C16.6129 26.9567 16.2701 27.0902 16.0167 27.3267C15.7633 27.5633 15.6197 27.8838 15.6171 28.2188ZM16.9121 30.4997C16.5931 30.5002 16.2772 30.4414 15.9828 30.3267C15.6883 30.2119 15.4211 30.0436 15.1967 29.8314C14.9723 29.6192 14.7952 29.3673 14.6756 29.0905C14.5561 28.8137 14.4964 28.5174 14.5002 28.2188C14.5002 26.9552 15.5584 25.9625 16.9121 25.9625C17.4402 25.9625 17.9116 26.0876 18.3244 26.3585V24.5H19.5V30.3993H18.3244V30.1265C17.9026 30.3773 17.4117 30.507 16.9121 30.4997Z" fill="#1A2530"/>
<path d="M10.617 27.9864C10.617 28.7505 11.2645 29.3789 11.9686 29.3789C12.7355 29.3789 13.3223 28.7505 13.3223 27.9864C13.3223 27.2495 12.7355 26.594 11.9686 26.594C11.6143 26.6064 11.2778 26.757 11.0269 27.0155C10.7761 27.2739 10.6296 27.6209 10.617 27.9864ZM11.91 30.5C10.617 30.5 9.5 29.3789 9.5 27.9864C9.5 26.594 10.617 25.5 11.91 25.5C12.4401 25.5 12.9116 25.6378 13.3223 25.9364V25.5543H14.5V30.3893H13.3223V30.0887C12.9703 30.3622 12.4401 30.5 11.91 30.5Z" fill="#1A2530"/>
<path d="M12.5 23.5L13 24.5H19L16.5 21L12.5 23.5Z" fill="#1A2530"/>
<path d="M20.5 24.5V25.5H21.5V24.5H25.5L21 17L17 19.5L20.5 24.5Z" fill="#1A2530"/>
<path d="M25 13L21.5 15.5L27 24.5H32.5L25 13Z" fill="#1A2530"/>
</svg>
