<svg width="45" height="44" viewBox="0 0 45 44" fill="none" xmlns="http://www.w3.org/2000/svg">
<rect x="0.5" width="44" height="44" rx="22" fill="white"/>
<path d="M28.6147 19.9828C30.8395 19.004 32.2923 17.534 32.3716 15.9034C32.3716 15.9034 31.7842 15.4508 29.8876 14.7531C28.2223 14.1402 26.9518 14 26.9518 14L26.9576 17.6332C26.9576 18.1762 26.7397 18.7303 26.3282 19.2209C25.0694 18.917 23.6783 18.7464 22.219 18.7459H22.2181C20.758 18.7464 19.3652 18.9174 18.105 19.2219C17.6936 18.7312 17.4751 18.1766 17.4751 17.6332L17.4806 14C17.4806 14 16.2109 14.1402 14.5446 14.7531C12.6481 15.4508 12.0617 15.9034 12.0617 15.9034C12.1403 17.5345 13.5937 19.0049 15.821 19.9837C13.5956 20.9625 12.1429 22.4324 12.0641 24.0625C12.0641 24.0625 12.6511 24.5155 14.5475 25.2129C16.2134 25.8257 17.4834 25.9659 17.4834 25.9659L17.4776 22.3327C17.4776 21.7898 17.6955 21.2352 18.1075 20.7451C19.3662 21.0495 20.757 21.2195 22.2161 21.2195H22.2166C23.6773 21.2195 25.0704 21.049 26.3302 20.7435C26.7416 21.2342 26.9596 21.7898 26.9596 22.3327L26.9547 25.9659C26.9547 25.9659 28.2247 25.8257 29.8906 25.2129C31.7871 24.5155 32.3739 24.0625 32.3739 24.0625C32.2948 22.4314 30.8415 20.9611 28.6147 19.9827V19.9828ZM22.2171 20.8002H22.2156L22.1741 20.7993C20.8566 20.7993 19.7826 20.4768 18.9948 19.9837C19.7826 19.4897 20.8572 19.1667 22.1771 19.1667L22.2176 19.1661H22.2196L22.261 19.1667C23.579 19.1667 24.6526 19.4892 25.4403 19.9822C24.6526 20.4758 23.578 20.7992 22.2587 20.7992L22.2171 20.8002ZM9.14947 29.9912C8.51126 29.9912 8.50002 29.5045 8.50002 29.3169V28.4314C8.50002 28.3777 8.49564 28.3063 8.60948 28.3063H8.93932C9.0464 28.3063 9.03955 28.3826 9.03955 28.4315V29.3168C9.03955 29.3799 9.05125 29.549 9.28341 29.549H9.83655C10.0642 29.549 10.0775 29.38 10.0775 29.3169V28.4314C10.0775 28.3826 10.0711 28.3063 10.1776 28.3063H10.5099C10.6305 28.3063 10.6199 28.3826 10.6199 28.4315V29.3168C10.6199 29.5045 10.6086 29.9912 9.96803 29.9912H9.14947ZM12.206 29.8843C11.9807 29.5809 11.6592 29.1988 11.3313 28.7951V29.8731C11.3313 29.9201 11.343 29.9914 11.2311 29.9914H10.9232C10.8118 29.9914 10.8251 29.9201 10.8251 29.8731V28.4316C10.8251 28.3827 10.8201 28.3064 10.9233 28.3064H11.5233C11.6929 28.3064 11.9343 28.648 12.0926 28.8733C12.2148 29.0453 12.4405 29.3038 12.592 29.4978V28.4316C12.592 28.3827 12.5852 28.3064 12.6971 28.3064H13.0313C13.1389 28.3064 13.132 28.3827 13.132 28.4316V29.9914H12.5163C12.3844 29.9914 12.3262 30.0002 12.206 29.8843V29.8843ZM14.7427 29.5481C15.0124 29.5481 14.9928 29.2892 14.9928 29.1708C14.9928 28.7736 14.881 28.7579 14.7025 28.7579H13.8547V29.5481H14.7427ZM13.3343 29.9918V28.3093H14.8213C14.9122 28.3093 15.5211 28.2986 15.5211 28.9383C15.5211 29.5925 15.5924 29.9918 14.8346 29.9918H14.0331L13.8591 29.6395V29.9918H13.3343ZM16.1036 28.3201H17.4733C17.5896 28.3201 17.574 28.3959 17.574 28.5367C17.574 28.6676 17.5916 28.7413 17.4733 28.7413H16.3909C16.3621 28.7413 16.2644 28.7258 16.2644 28.8283C16.2644 28.931 16.2443 28.9716 16.3533 28.9716H17.3105C17.3105 28.9716 17.4489 29.2349 17.4645 29.2794C17.487 29.3195 17.4846 29.3576 17.4 29.3576H16.409L16.2551 29.0585V29.5002C16.2551 29.6029 16.3469 29.5828 16.3733 29.5828H17.4978C17.6096 29.5828 17.6004 29.6605 17.6004 29.7876C17.6004 29.9244 17.6096 29.9996 17.4978 29.9996H16.0742C15.956 29.9996 15.7243 29.964 15.7243 29.5941V28.6656C15.7243 28.5698 15.7757 28.3202 16.1036 28.3202V28.3201ZM19.1371 28.7532H18.4701C18.3592 28.7532 18.363 28.7913 18.363 28.825V29.1261H19.0501C19.3829 29.1261 19.3829 29.0429 19.3829 28.956C19.3829 28.7821 19.3697 28.7532 19.1371 28.7532ZM17.9438 28.3091H19.443C19.6438 28.3091 19.9356 28.307 19.9356 28.849C19.9356 29.2037 19.8604 29.2214 19.6995 29.3308C19.9698 29.3777 19.9341 29.7232 19.9341 29.9021C19.9341 29.9934 19.9008 29.9915 19.8735 29.9915H19.4342C19.3423 29.9915 19.3648 29.8463 19.3648 29.7706C19.3648 29.5629 19.249 29.5722 19.204 29.5722H18.5571C18.495 29.4647 18.3743 29.2238 18.3743 29.2238V29.9221C18.3743 29.9827 18.3137 29.9915 18.2917 29.9915H17.8504C17.8744 29.9915 17.805 29.9959 17.805 29.9353V28.4542C17.805 28.3492 17.8788 28.309 17.9437 28.309L17.9438 28.3091ZM22.3386 28.7861L22.0621 29.2904L22.0864 29.3148H22.602L22.6289 29.2904C22.6108 29.2523 22.388 28.8287 22.3655 28.7836L22.3386 28.7861ZM22.517 28.3204C22.6264 28.3204 22.733 28.3693 22.8493 28.5945C22.9279 28.7548 23.4724 29.7385 23.5857 29.9443V30H23.0189L22.8557 29.7052H22.1666C22.1666 29.7052 22.0508 29.4399 22.0176 29.3666C21.9751 29.4355 21.7474 29.8685 21.6686 29.9999H21.1003V29.9643C21.2162 29.7459 22.0083 28.3204 22.0083 28.3204H22.517ZM25.0724 28.7532H24.4054C24.2939 28.7532 24.2983 28.7913 24.2983 28.825V29.1261H24.9854C25.3181 29.1261 25.3181 29.0429 25.3181 28.956C25.3181 28.7821 25.305 28.7532 25.0724 28.7532ZM23.8791 28.3091H25.3783C25.5791 28.3091 25.8714 28.307 25.8714 28.849C25.8714 29.2037 25.7961 29.2214 25.6347 29.3308C25.9045 29.3777 25.8689 29.7232 25.8689 29.9021C25.8689 29.9934 25.8356 29.9915 25.8088 29.9915H25.3695C25.2776 29.9915 25.3 29.8463 25.3 29.7706C25.3 29.5629 25.1843 29.5722 25.1392 29.5722H24.4923C24.4298 29.4647 24.3091 29.2238 24.3091 29.2238V29.9221C24.3091 29.9827 24.2495 29.9915 24.2269 29.9915H23.7853C23.8096 29.9915 23.7408 29.9959 23.7408 29.9353V28.4542C23.7408 28.3492 23.8146 28.309 23.879 28.309L23.8791 28.3091ZM27.1811 29.9912C27.0692 29.7816 26.759 29.2035 26.5493 28.8248V29.873C26.5493 29.9199 26.5557 29.9912 26.4496 29.9912H26.1457C26.0318 29.9912 26.0406 29.92 26.0406 29.873V28.4314C26.0406 28.3826 26.0342 28.3088 26.1457 28.3088H26.67C26.7481 28.3088 26.8591 28.2907 26.9847 28.5409C27.0785 28.7412 27.2774 29.1571 27.4132 29.3775C27.5535 29.1571 27.7567 28.7412 27.8506 28.5409C27.9733 28.2907 28.0822 28.3088 28.1692 28.3088H28.6911C28.7986 28.3088 28.7874 28.3826 28.7874 28.4314V29.873C28.7874 29.9199 28.8025 29.9912 28.6911 29.9912H28.3857C28.2743 29.9912 28.283 29.92 28.283 29.873V28.8248C28.0715 29.2035 27.7631 29.7816 27.6468 29.9912H27.1811ZM30.4603 29.5627C30.713 29.5627 30.7036 29.3023 30.7036 29.1278C30.7036 28.9715 30.7393 28.7261 30.4114 28.7261H29.8554C29.5299 28.7261 29.568 28.9715 29.568 29.1278C29.568 29.3023 29.5524 29.5627 29.8046 29.5627H30.4603ZM29.461 29.9957C28.9635 29.9957 28.9856 29.4621 28.9856 29.1171C28.9856 28.8 28.9499 28.3048 29.5724 28.3H30.6773C31.3018 28.3 31.2612 28.8019 31.2612 29.1171C31.2612 29.462 31.2862 29.9957 30.7814 29.9957H29.461ZM32.0931 29.9912C31.4544 29.9912 31.4436 29.5045 31.4436 29.3169V28.4314C31.4436 28.3777 31.4392 28.3063 31.5531 28.3063H31.8835C31.99 28.3063 31.9836 28.3826 31.9836 28.4315V29.3168C31.9836 29.3799 31.9948 29.549 32.2269 29.549H32.7802C33.0078 29.549 33.021 29.38 33.021 29.3169V28.4314C33.021 28.3826 33.0142 28.3063 33.1212 28.3063H33.4535C33.5741 28.3063 33.5635 28.3826 33.5635 28.4315V29.3168C33.5635 29.5045 33.5522 29.9912 32.9115 29.9912H32.0931ZM35.111 28.7532H34.444C34.3325 28.7532 34.3369 28.7913 34.3369 28.825V29.1261H35.024C35.3567 29.1261 35.3567 29.0429 35.3567 28.956C35.3567 28.7821 35.3436 28.7532 35.111 28.7532V28.7532ZM33.9171 28.3091H35.4169C35.6177 28.3091 35.9104 28.307 35.9104 28.849C35.9104 29.2037 35.8342 29.2214 35.6734 29.3308C35.9437 29.3777 35.908 29.7232 35.908 29.9021C35.908 29.9934 35.8747 29.9915 35.8474 29.9915H35.4081C35.3167 29.9915 35.3386 29.8463 35.3386 29.7706C35.3386 29.5629 35.2229 29.5722 35.1784 29.5722H34.531C34.4688 29.4647 34.3482 29.2238 34.3482 29.2238V29.9221C34.3482 29.9827 34.2875 29.9915 34.2655 29.9915H33.8243C33.8482 29.9915 33.7794 29.9959 33.7794 29.9353V28.4542C33.7794 28.3492 33.8532 28.309 33.9171 28.309" fill="#1A2530"/>
</svg>
