<svg width="45" height="44" viewBox="0 0 45 44" fill="none" xmlns="http://www.w3.org/2000/svg">
<rect x="0.5" width="44" height="44" rx="22" fill="white"/>
<path d="M24.7764 19.0682L18.4053 26.1365H23.8684L30.2395 19.0682L23.8684 12H18.4053L24.7764 19.0682Z" fill="#1A2530"/>
<path d="M16.4757 17.5564L13.5989 16.6069L15.4025 19.1087L13.6287 21.5954L16.4757 20.6459L18.2048 23.1477V20.0581L21.1114 19.1087L18.2048 18.1442V15.0697L16.4757 17.5564ZM9.3081 29.0997C9.56021 29.0997 9.80796 29.2219 9.97312 29.427L10.034 29.5012L10.812 28.9644L10.7424 28.8772C10.3991 28.4451 9.87315 28.1964 9.3081 28.1964C8.31277 28.1964 7.5 28.9776 7.5 29.9332C7.5 30.8888 8.31277 31.67 9.3081 31.67C9.86879 31.67 10.3904 31.4256 10.7337 31.0023L10.8033 30.915L10.0253 30.3783L9.96443 30.4525C9.79492 30.6576 9.55585 30.7754 9.30378 30.7754C8.84305 30.7754 8.45187 30.3914 8.45187 29.9375C8.45623 29.4837 8.84741 29.0997 9.30814 29.0997H9.3081ZM17.6633 30.1267L16.2651 28.2772H15.376V31.5488H16.2392V29.7167L17.5425 31.5488H18.5265V28.2772H17.6633V30.1267ZM20.9999 30.6066C20.9999 30.6327 20.9651 30.6371 20.9477 30.6371C20.9346 30.6371 20.9085 30.6327 20.8955 30.6022L20.1733 28.2772H19.1727L20.2386 31.5488H21.6611L22.727 28.2772H21.7264L20.9999 30.6066ZM29.0791 30.2096C29.4279 30.009 29.6284 29.6425 29.5979 29.2412C29.5587 28.696 29.0834 28.2772 28.5167 28.2772H26.8468V31.5488H27.7188V30.371H28.1112C28.1504 30.371 28.1853 30.3754 28.2115 30.4103L28.7739 31.5488H29.7549L29.0791 30.2096ZM28.4705 29.5293H27.695V29.1658H28.4705C28.5762 29.1658 28.6643 29.2385 28.6643 29.3475C28.6643 29.4566 28.5762 29.5293 28.4705 29.5293ZM33.915 31.5488H36.5V30.6764H34.7767V30.2838H36.3277V29.4986H34.7767V29.1496H36.5V28.2772H33.915V31.5488ZM31.9232 29.5207C31.4597 29.4165 31.3254 29.347 31.3254 29.1951V29.1864C31.3254 29.0648 31.4164 28.9693 31.6416 28.9693C31.9405 28.9693 32.1831 29.0648 32.508 29.2602L33.0278 28.6437C32.6639 28.3527 32.2264 28.1964 31.6589 28.1964C30.8532 28.1964 30.3724 28.648 30.3724 29.2732V29.2819C30.3724 29.9723 30.9399 30.1763 31.6546 30.337C32.1094 30.4412 32.235 30.5193 32.235 30.6583V30.6669C32.235 30.8103 32.0748 30.8971 31.8235 30.8971C31.4337 30.8971 31.0525 30.7581 30.7233 30.4933L30.1992 31.1142C30.6107 31.4832 31.2084 31.67 31.8019 31.67C32.6162 31.67 33.188 31.2618 33.188 30.5758V30.5671C33.188 29.9375 32.6942 29.69 31.9232 29.5207ZM12.9325 28.1964C11.9631 28.1964 11.1755 28.9776 11.1755 29.9332C11.1755 30.8932 11.9631 31.67 12.9325 31.67C13.9018 31.67 14.6894 30.8888 14.6894 29.9332C14.6894 28.9732 13.9018 28.1964 12.9325 28.1964ZM12.9325 30.7814C12.4749 30.7814 12.1045 30.411 12.1045 29.9534C12.1045 29.4958 12.4749 29.1254 12.9325 29.1254C13.39 29.1254 13.7604 29.4958 13.7604 29.9534C13.7604 30.411 13.39 30.7814 12.9325 30.7814ZM23.3733 31.5488H25.9582V30.6764H24.2349V30.2838H25.7859V29.4986H24.2349V29.1496H25.9582V28.2772H23.3733V31.5488Z" fill="#1A2530"/>
</svg>
