<svg width="26" height="14" viewBox="0 0 26 14" fill="none" xmlns="http://www.w3.org/2000/svg">
<path d="M7.73367 7.33306L10.2164 0.352982H8.57526L7.43911 3.38207L7.69159 0.352982H5.96631L3.48361 7.33306H5.08264L6.30295 3.95277L6.09255 7.24526L7.73367 7.33306ZM9.66934 7.33306L12.152 0.352982H10.5951L8.0703 7.33306H9.66934ZM14.1719 6.89407L14.0877 3.38207L16.4442 0.528581L14.1719 6.89407ZM25.6176 4.43567L17.6224 6.58677L17.8328 5.92827H16.1496L16.6967 4.26007H18.1274L18.5482 2.98697L17.1175 3.07477L17.6224 1.66998H19.011L19.4739 0.396881H14.9714L13.3303 2.41628L14.1298 0.352982H12.5308L10.0481 7.33306H11.6892L12.7412 4.34787V7.33306H14.8452L7.31287 9.39636C6.52736 9.63048 5.82602 9.73294 5.20888 9.70366C4.59169 9.67438 4.1148 9.49878 3.77817 9.17686C3.02073 8.59154 2.7542 7.69888 2.97865 6.49897C3.1189 5.70877 3.42747 4.94785 3.9044 4.21617C2.78226 5.44537 1.95468 6.48435 1.4217 7.33306C0.832581 8.24034 0.453863 9.13296 0.285544 10.011C0.117224 10.889 0.215397 11.606 0.580102 12.1621C1.56195 13.8595 3.70802 13.9766 7.01831 12.5133L25.6176 4.43567Z" fill="#1A2530"/>
</svg>
