<svg width="45" height="44" viewBox="0 0 45 44" fill="none" xmlns="http://www.w3.org/2000/svg">
<rect x="0.5" width="44" height="44" rx="22" fill="white"/>
<path d="M23.754 14.0547C23.6486 14.0703 23.5474 14.4581 23.3439 14.6602C23.1952 14.8058 23.0091 14.797 22.9107 14.9772C22.8731 15.0443 22.8852 15.1594 22.843 15.2695C22.7596 15.4903 22.4674 15.51 22.4674 15.7504C22.4663 16.0102 22.7109 16.0596 22.9232 16.2442C23.0889 16.3922 23.1047 16.4945 23.3051 16.5666C23.4766 16.6245 23.7312 16.4346 23.9606 16.5029C24.1486 16.5587 24.3287 16.5991 24.3714 16.7925C24.4089 16.971 24.3687 17.247 24.1404 17.2152C24.0635 17.2064 23.7295 17.0943 23.3201 17.1379C22.8254 17.1941 22.2611 17.3554 22.2058 17.9071C22.1754 18.215 22.5568 18.5784 22.9249 18.5044C23.1792 18.4547 23.059 18.1543 23.1972 18.0087C23.379 17.8217 24.4089 18.6606 25.3657 18.6606C25.7687 18.6606 26.0684 18.5587 26.3661 18.2471C26.394 18.2231 26.4278 18.1722 26.4708 18.1688C26.5115 18.1722 26.5822 18.2122 26.6056 18.2292C27.376 18.8486 27.9589 20.0915 30.7919 20.1057C31.1905 20.108 31.644 20.2985 32.0149 20.6364C32.3454 20.9419 32.5384 21.4177 32.7264 21.9C33.0102 22.6237 33.5178 23.3279 34.2884 24.1112C34.3303 24.1532 34.9647 24.6463 35.0155 24.6829C35.0233 24.6886 35.0701 24.7997 35.0538 24.8617C35.0351 25.3318 34.9667 26.6976 35.9851 26.7596C36.234 26.7721 36.169 26.597 36.169 26.4769C36.1684 26.2387 36.125 26.0024 36.2502 25.7585C36.4217 25.4236 35.8866 25.2694 35.9021 24.545C35.9133 24.0048 35.4595 24.097 35.2295 23.6855C35.0968 23.4471 34.9789 23.3207 34.9873 23.0291C35.0392 21.3883 34.6382 20.3099 34.4384 20.0451C34.2823 19.8453 34.1533 19.766 34.2957 19.6736C35.1459 19.1118 35.3386 18.5898 35.3386 18.5898C35.7908 17.5275 36.1971 16.5571 36.7577 16.1297C36.8703 16.0413 37.16 15.8253 37.3374 15.7406C37.8607 15.494 38.1357 15.3443 38.2878 15.1967C38.5279 14.9626 38.7182 14.474 38.4875 14.1779C38.2011 13.8125 37.7055 14.1024 37.4872 14.2322C35.9245 15.1594 35.6942 16.7952 35.153 17.7347C34.7212 18.4851 34.019 19.0365 33.3913 19.0816C32.9212 19.1165 32.4135 19.0213 31.9086 18.7995C30.6802 18.2609 30.0082 17.5658 29.849 17.4427C29.5191 17.188 26.9574 14.6728 24.8814 14.5701C24.8814 14.5701 24.6237 14.054 24.559 14.0458C24.4073 14.0262 24.2519 14.3537 24.1404 14.392C24.0357 14.4266 23.8597 14.0374 23.754 14.0546V14.0547ZM14.6156 29.0656C14.4202 29.0609 14.2542 28.9007 14.2542 28.7026L14.2549 22.2272H12.1206V29.3647C12.1206 29.7149 12.404 30 12.7519 30H16.4817C16.8318 30 17.1119 29.7149 17.1119 29.3647V22.2271H14.9797L14.9779 28.7026C14.9779 28.9007 14.812 29.0609 14.6156 29.0656ZM21.7605 22.2272H18.531C18.1482 22.2272 17.837 22.538 17.837 22.9241V30H19.9734V23.5094C19.9737 23.4623 19.9832 23.4157 20.0015 23.3723C20.0198 23.3289 20.0465 23.2895 20.08 23.2565C20.1136 23.2234 20.1533 23.1972 20.1969 23.1795C20.2406 23.1617 20.2873 23.1527 20.3344 23.153C20.5336 23.153 20.6938 23.3069 20.698 23.504V30H22.8254V23.504C22.8281 23.3069 22.9879 23.1532 23.187 23.1532C23.3841 23.1532 23.5475 23.3105 23.5488 23.5093V30H25.6851V22.9241C25.6851 22.538 25.3728 22.2271 24.9908 22.2271H21.7606L21.7605 22.2272ZM10.6972 28.0469H8.54101V30H6.4082V22.2272H10.7107C11.0959 22.2272 11.3966 22.5402 11.3966 22.9273V27.3462C11.3968 27.4382 11.3789 27.5294 11.3439 27.6144C11.3088 27.6995 11.2573 27.7768 11.1923 27.8419C11.1273 27.907 11.0502 27.9586 10.9652 27.9938C10.8802 28.029 10.7891 28.0471 10.6971 28.047L10.6972 28.0469ZM9.26493 23.5229C9.26556 23.4749 9.25671 23.4272 9.23888 23.3826C9.22105 23.338 9.19458 23.2973 9.16101 23.263C9.12743 23.2286 9.0874 23.2012 9.04321 23.1823C8.99902 23.1635 8.95155 23.1535 8.9035 23.153H8.54112V27.0844H8.9035C9.09189 27.0844 9.26664 26.9347 9.26493 26.7193V23.5229Z" fill="#1A2530"/>
<path d="M29.2659 30V28.0486H28.5408V30H26.4088V22.9241C26.4088 22.538 26.72 22.2271 27.1028 22.2271H30.7041C31.0876 22.2271 31.3985 22.538 31.3985 22.9241V30H29.2659ZM29.2659 27.0858V23.5066C29.2608 23.3089 29.1016 23.1569 28.9025 23.1569C28.7053 23.1569 28.5428 23.3149 28.5408 23.5124V27.0858H29.2659Z" fill="#1A2530"/>
</svg>
